<?xml version="1.0" encoding="utf-8"?>
<!-- Generator: Adobe Illustrator 25.0.0, SVG Export Plug-In . SVG Version: 6.00 Build 0)  -->
<svg version="1.1" id="Capa_1" xmlns="http://www.w3.org/2000/svg" xmlns:xlink="http://www.w3.org/1999/xlink" x="0px" y="0px"
	 viewBox="0 0 512 512" style="enable-background:new 0 0 512 512;" xml:space="preserve">
<style type="text/css">
	.st0{fill:#FFFFFF;}
</style>
<g>
	<path class="st0" d="M505,77.9L434.1,7c-3.9-3.9-10.1-3.9-14,0L263,164.1c-3.9,3.9-10.1,3.9-14,0L91.9,7c-3.9-3.9-10.1-3.9-14,0
		L7,77.9c-3.9,3.9-3.9,10.1,0,14L164.1,249c3.9,3.9,3.9,10.1,0,14L7,420.1c-3.9,3.9-3.9,10.1,0,14L77.9,505c3.9,3.9,10.1,3.9,14,0
		L249,347.9c3.9-3.9,10.1-3.9,14,0L420.1,505c3.9,3.9,10.1,3.9,14,0l70.9-70.9c3.9-3.9,3.9-10.1,0-14L347.9,263
		c-3.9-3.9-3.9-10.1,0-14L505,91.9C508.9,88,508.9,81.7,505,77.9z"/>
</g>
</svg>
