<svg width="32" height="40" viewBox="0 0 32 40" fill="none" xmlns="http://www.w3.org/2000/svg">
<path d="M16 23.9036C20.2282 23.9036 23.6667 20.4651 23.6667 16.237C23.6667 12.0088 20.2282 8.57031 16 8.57031C11.7719 8.57031 8.33337 12.0088 8.33337 16.237C8.33337 20.4651 11.7719 23.9036 16 23.9036ZM16 12.4036C18.1141 12.4036 19.8334 14.1229 19.8334 16.237C19.8334 18.3511 18.1141 20.0703 16 20.0703C13.886 20.0703 12.1667 18.3511 12.1667 16.237C12.1667 14.1229 13.886 12.4036 16 12.4036Z" fill="white"/>
<path d="M14.8885 38.8806C15.2129 39.1123 15.6015 39.2368 16.0001 39.2368C16.3987 39.2368 16.7874 39.1123 17.1118 38.8806C17.6945 38.4686 31.389 28.5805 31.3335 16.2371C31.3335 7.78273 24.4545 0.903809 16.0001 0.903809C7.54571 0.903809 0.666795 7.78272 0.666795 16.2276C0.611211 28.5805 14.3058 38.4686 14.8885 38.8806ZM16.0001 4.73714C22.3424 4.73714 27.5001 9.89489 27.5001 16.2467C27.5404 24.7529 19.0898 32.3908 16.0001 34.8959C12.9124 32.3889 4.45988 24.7491 4.50013 16.2371C4.50013 9.89489 9.65788 4.73714 16.0001 4.73714Z" fill="white"/>
</svg>
